#Comment line ignore any data following # character 
#Hierarchical Translation and Rotation (.htr) file 
[Header]	
#Header keywords are followed by a single value 
FileType HTR		#Single word string
DataType HTRS		#Translation followed by rotation and scale data
FileVersion 1		#integer
NumSegments 64		#integer
NumFrames 3		#integer
DataFrameRate 30		#integer, data frame rate in this file
EulerRotationOrder ZYX
CalibrationUnits mm
RotationUnits Degrees
GlobalAxisofGravity Y
BoneLengthAxis Y
ScaleFactor 1.00
[SegmentNames&Hierarchy]
#CHILD	PARENT
Pinger_Root GLOBAL
Pelvis Pinger_Root
L_Hip Pelvis
R_Hip Pelvis
Rear_Leg01 Pelvis
Spine1 Pelvis
L_Leg01 L_Hip
L_Leg02 L_Leg01
L_Leg03 L_Leg02
L_Foot L_Leg03
L_Toe1_01 L_Foot
L_Toe2_01 L_Foot
L_Toe3_01 L_Foot
planeAlignerLeft L_Foot
L_Toe1_02 L_Toe1_01
L_Toe1_03 L_Toe1_02
L_Toe2_02 L_Toe2_01
L_Toe2_03 L_Toe2_02
L_Toe3_02 L_Toe3_01
L_Toe3_03 L_Toe3_02
planeLockWeightLeft planeAlignerLeft
R_Leg01 R_Hip
R_Leg02 R_Leg01
R_Leg03 R_Leg02
R_Foot R_Leg03
planeAlignerRight R_Foot
R_Toe1_01 R_Foot
R_Toe2_01 R_Foot
R_Toe3_01 R_Foot
planeLockWeightRight planeAlignerRight
R_Toe1_02 R_Toe1_01
R_Toe1_03 R_Toe1_02
R_Toe2_02 R_Toe2_01
R_Toe2_03 R_Toe2_02
R_Toe3_02 R_Toe3_01
R_Toe3_03 R_Toe3_02
Rear_Leg02 Rear_Leg01
Rear_Leg03 Rear_Leg02
Rear_Leg04 Rear_Leg03
Rear_Foot Rear_Leg04
planeAlignerCenter Rear_Foot
Rear_Toe1_01 Rear_Foot
Rear_Toe2_01 Rear_Foot
Rear_Toe3_01 Rear_Foot
planeLockWeightCenter planeAlignerCenter
Rear_Toe1_02 Rear_Toe1_01
Rear_Toe1_03 Rear_Toe1_02
Rear_Toe2_02 Rear_Toe2_01
Rear_Toe2_03 Rear_Toe2_02
Rear_Toe3_02 Rear_Toe3_01
Rear_Toe3_03 Rear_Toe3_02
Back_Bone Spine1
Head Spine1
Motor_Bone Back_Bone
Ping_Mechanism Back_Bone
BN_LookIK Head
bottomMouth Head
L_Mouth01 Head
L_mouthFront Head
mouthGun Head
R_Mouth01 Head
R_mouthFront Head
TopMouth Head
weapon_bone Head
[BasePosition]
#SegmentName Tx, Ty, Tz, Rx, Ry, Rz, BoneLength
Pinger_Root 0.000000 0.000000 0.000000 -90.000000 0.000000 0.000000 10.000000 
Pelvis 0.000000 0.000000 0.000000 0.000000 0.000000 0.000000 10.000000 
L_Hip 0.000000 0.000000 0.000000 0.000000 0.000000 0.000000 10.000000 
R_Hip 0.000000 0.000000 0.000000 0.000000 0.000000 0.000000 10.000000 
Rear_Leg01 0.000000 0.000000 0.000000 0.000000 0.000000 0.000000 10.000000 
Spine1 0.000000 0.000000 0.000000 0.000000 0.000000 0.000000 10.000000 
L_Leg01 0.000000 0.000000 0.000000 0.000000 0.000000 0.000000 10.000000 
L_Leg02 0.000000 0.000000 0.000000 0.000000 0.000000 0.000000 10.000000 
L_Leg03 0.000000 0.000000 0.000000 0.000000 0.000000 0.000000 10.000000 
L_Foot 0.000000 0.000000 0.000000 0.000000 0.000000 0.000000 10.000000 
L_Toe1_01 0.000000 0.000000 0.000000 0.000000 0.000000 0.000000 10.000000 
L_Toe2_01 0.000000 0.000000 0.000000 0.000000 0.000000 0.000000 10.000000 
L_Toe3_01 0.000000 0.000000 0.000000 0.000000 0.000000 0.000000 10.000000 
planeAlignerLeft 0.000000 0.000000 0.000000 0.000000 0.000000 0.000000 10.000000 
L_Toe1_02 0.000000 0.000000 0.000000 0.000000 0.000000 0.000000 10.000000 
L_Toe1_03 0.000000 0.000000 0.000000 0.000000 0.000000 0.000000 10.000000 
L_Toe2_02 0.000000 0.000000 0.000000 0.000000 0.000000 0.000000 10.000000 
L_Toe2_03 0.000000 0.000000 0.000000 0.000000 0.000000 0.000000 10.000000 
L_Toe3_02 0.000000 0.000000 0.000000 0.000000 0.000000 0.000000 10.000000 
L_Toe3_03 0.000000 0.000000 0.000000 0.000000 0.000000 0.000000 10.000000 
planeLockWeightLeft 0.000000 0.000000 0.000000 0.000000 0.000000 0.000000 10.000000 
R_Leg01 0.000000 0.000000 0.000000 0.000000 0.000000 0.000000 10.000000 
R_Leg02 0.000000 0.000000 0.000000 0.000000 0.000000 0.000000 10.000000 
R_Leg03 0.000000 0.000000 0.000000 0.000000 0.000000 0.000000 10.000000 
R_Foot 0.000000 0.000000 0.000000 0.000000 0.000000 0.000000 10.000000 
planeAlignerRight 0.000000 0.000000 0.000000 0.000000 0.000000 0.000000 10.000000 
R_Toe1_01 0.000000 0.000000 0.000000 0.000000 0.000000 0.000000 10.000000 
R_Toe2_01 0.000000 0.000000 0.000000 0.000000 0.000000 0.000000 10.000000 
R_Toe3_01 0.000000 0.000000 0.000000 0.000000 0.000000 0.000000 10.000000 
planeLockWeightRight 0.000000 0.000000 0.000000 0.000000 0.000000 0.000000 10.000000 
R_Toe1_02 0.000000 0.000000 0.000000 0.000000 0.000000 0.000000 10.000000 
R_Toe1_03 0.000000 0.000000 0.000000 0.000000 0.000000 0.000000 10.000000 
R_Toe2_02 0.000000 0.000000 0.000000 0.000000 0.000000 0.000000 10.000000 
R_Toe2_03 0.000000 0.000000 0.000000 0.000000 0.000000 0.000000 10.000000 
R_Toe3_02 0.000000 0.000000 0.000000 0.000000 0.000000 0.000000 10.000000 
R_Toe3_03 0.000000 0.000000 0.000000 0.000000 0.000000 0.000000 10.000000 
Rear_Leg02 0.000000 0.000000 0.000000 0.000000 0.000000 0.000000 10.000000 
Rear_Leg03 0.000000 0.000000 0.000000 0.000000 0.000000 0.000000 10.000000 
Rear_Leg04 0.000000 0.000000 0.000000 0.000000 0.000000 0.000000 10.000000 
Rear_Foot 0.000000 0.000000 0.000000 0.000000 0.000000 0.000000 10.000000 
planeAlignerCenter 0.000000 0.000000 0.000000 0.000000 0.000000 0.000000 10.000000 
Rear_Toe1_01 0.000000 0.000000 0.000000 0.000000 0.000000 0.000000 10.000000 
Rear_Toe2_01 0.000000 0.000000 0.000000 0.000000 0.000000 0.000000 10.000000 
Rear_Toe3_01 0.000000 0.000000 0.000000 0.000000 0.000000 0.000000 10.000000 
planeLockWeightCenter 0.000000 0.000000 0.000000 0.000000 0.000000 0.000000 10.000000 
Rear_Toe1_02 0.000000 0.000000 0.000000 0.000000 0.000000 0.000000 10.000000 
Rear_Toe1_03 0.000000 0.000000 0.000000 0.000000 0.000000 0.000000 10.000000 
Rear_Toe2_02 0.000000 0.000000 0.000000 0.000000 0.000000 0.000000 10.000000 
Rear_Toe2_03 0.000000 0.000000 0.000000 0.000000 0.000000 0.000000 10.000000 
Rear_Toe3_02 0.000000 0.000000 0.000000 0.000000 0.000000 0.000000 10.000000 
Rear_Toe3_03 0.000000 0.000000 0.000000 0.000000 0.000000 0.000000 10.000000 
Back_Bone 0.000000 0.000000 0.000000 0.000000 0.000000 0.000000 10.000000 
Head 0.000000 0.000000 0.000000 0.000000 0.000000 0.000000 10.000000 
Motor_Bone 0.000000 0.000000 0.000000 0.000000 0.000000 0.000000 10.000000 
Ping_Mechanism 0.000000 0.000000 0.000000 0.000000 0.000000 0.000000 10.000000 
BN_LookIK 0.000000 0.000000 0.000000 0.000000 0.000000 0.000000 10.000000 
bottomMouth 0.000000 0.000000 0.000000 0.000000 0.000000 0.000000 10.000000 
L_Mouth01 0.000000 0.000000 0.000000 0.000000 0.000000 0.000000 10.000000 
L_mouthFront 0.000000 0.000000 0.000000 0.000000 0.000000 0.000000 10.000000 
mouthGun 0.000000 0.000000 0.000000 0.000000 0.000000 0.000000 10.000000 
R_Mouth01 0.000000 0.000000 0.000000 0.000000 0.000000 0.000000 10.000000 
R_mouthFront 0.000000 0.000000 0.000000 0.000000 0.000000 0.000000 10.000000 
TopMouth 0.000000 0.000000 0.000000 0.000000 0.000000 0.000000 10.000000 
weapon_bone 0.000000 0.000000 0.000000 0.000000 0.000000 0.000000 10.000000 
#Beginning of Data. Separated by tabs
#Fr	Tx	Ty	Tz	Rx	Ry	Rz	SF
[Pinger_Root]
43 0.000000 0.000000 0.000000 -0.000002 0.000053 84.705872 0.000000
44 0.000000 0.000000 0.000000 0.000025 0.000054 87.354294 0.000000
45 0.000000 0.000000 0.000000 0.000053 0.000053 89.999916 0.000000
[Pelvis]
43 328.224335 244.033203 4361.895508 -93.547523 -84.178696 98.001968 4381.029297
44 363.770691 287.365570 4362.562012 -97.633614 -84.845657 98.779327 4387.124023
45 395.357819 337.779663 4364.051758 -102.431778 -85.504417 100.273445 4394.923340
[L_Hip]
43 5.766392 125.831482 872.656799 160.158691 -45.484905 122.312202 881.701050
44 5.766392 125.831482 872.656799 160.158691 -45.484905 122.312202 881.701050
45 5.766392 125.831482 872.656799 160.158691 -45.484905 122.312202 881.701050
[R_Hip]
43 5.765438 125.836372 -872.654907 38.087841 49.812687 125.703735 881.699829
44 5.765438 125.836372 -872.654907 38.087841 49.812687 125.703735 881.699829
45 5.765438 125.836372 -872.654907 38.087841 49.812687 125.703735 881.699829
[Rear_Leg01]
43 -192.298416 -925.602966 -0.001907 173.923828 -4.410817 -149.666107 945.367432
44 -192.298416 -925.602966 -0.001907 173.071960 -4.709712 -149.299637 945.367432
45 -192.298416 -925.602966 -0.001907 172.410294 -4.613301 -149.087875 945.367432
[Spine1]
43 290.604584 5.007505 0.000477 -2.120935 2.119853 17.730318 290.647736
44 290.604584 5.007505 0.000477 -0.961005 2.069060 18.407042 290.647736
45 290.604584 5.007505 0.000477 0.198201 2.004591 19.082575 290.647736
[L_Leg01]
43 761.932007 -0.002384 -0.069261 16.744860 -28.536919 6.817091 761.932068
44 761.932007 -0.002384 -0.069261 18.649872 -26.899189 5.072731 761.932068
45 761.932007 -0.002384 -0.069261 20.470409 -25.213747 3.415585 761.932068
[L_Leg02]
43 1441.140503 -0.000954 -0.000715 -0.403425 0.179304 -118.776146 1441.140503
44 1441.140503 -0.000954 -0.000715 -0.159982 0.108544 -119.505310 1441.140503
45 1441.140503 -0.000954 -0.000715 0.084353 0.040885 -120.234772 1441.140503
[L_Leg03]
43 1686.963989 -0.000715 -0.000954 0.026230 -0.006614 103.450050 1686.963989
44 1686.963989 -0.000715 -0.000954 0.020525 -0.005012 104.771980 1686.963989
45 1686.963989 -0.000715 -0.000954 0.014858 -0.003278 106.094086 1686.963989
[L_Foot]
43 3041.570068 -30.715107 11.297464 -15.886356 12.666444 44.780651 3041.746094
44 3041.570068 -30.715107 11.297464 -15.657142 12.719580 45.338821 3041.746094
45 3041.570068 -30.715107 11.297464 -15.427367 12.770535 45.897320 3041.746094
[L_Toe1_01]
43 -188.216690 -224.732346 -21.137953 76.493690 -1.187314 -171.570221 293.899567
44 -188.216690 -224.732346 -21.137953 77.790665 -1.618094 -171.566757 293.899567
45 -188.216690 -224.732346 -21.137953 78.568245 -1.874649 -171.561234 293.899567
[L_Toe2_01]
43 200.746536 -219.926590 148.838394 -80.305756 -8.128386 -57.688797 332.896027
44 200.746536 -219.926590 148.838394 -80.879288 -9.349273 -57.446350 332.896027
45 200.746536 -219.926590 148.838394 -81.279671 -10.188097 -57.271606 332.896027
[L_Toe3_01]
43 188.832520 -219.859131 -191.078659 -92.482132 34.164513 -61.743229 347.140900
44 188.832520 -219.859131 -191.078659 -93.070999 32.845303 -62.227512 347.140900
45 188.832520 -219.859131 -191.078659 -93.463814 31.937382 -62.544540 347.140900
[planeAlignerLeft]
43 32.785645 -596.331970 -79.109146 -10.786706 -86.317726 -89.939911 602.449158
44 32.792355 -597.784241 -67.258995 -10.793001 -87.625458 -89.935051 602.449219
45 32.799377 -598.644470 -59.085373 -10.996319 -88.410454 -89.724541 602.446777
[L_Toe1_02]
43 413.761139 0.000477 0.000000 0.001384 -25.981350 0.001384 413.761139
44 413.761139 0.000477 0.000000 0.001384 -25.983608 0.001384 413.761139
45 413.761139 0.000477 0.000000 0.001384 -25.985861 0.001384 413.761139
[L_Toe1_03]
43 464.317322 0.000358 -0.000089 0.003894 54.914814 0.003894 464.317322
44 464.317322 0.000358 -0.000089 0.003890 54.878876 0.003890 464.317322
45 464.317322 0.000358 -0.000089 0.003886 54.842915 0.003886 464.317322
[L_Toe2_02]
43 342.235809 -0.000477 0.000238 0.001189 -71.801132 0.001189 342.235809
44 342.235809 -0.000477 0.000238 0.001188 -71.852295 0.001188 342.235809
45 342.235809 -0.000477 0.000238 0.001188 -71.903458 0.001188 342.235809
[L_Toe2_03]
43 420.210846 -0.000715 0.000000 0.022732 84.081299 0.022732 420.210846
44 420.210846 -0.000715 0.000000 0.023670 84.315971 0.023670 420.210846
45 420.210846 -0.000715 0.000000 0.024689 84.550613 0.024689 420.210846
[L_Toe3_02]
43 329.270111 0.000954 0.000000 0.001177 -80.958519 0.001177 329.270111
44 329.270111 0.000954 0.000000 0.001177 -80.943314 0.001177 329.270111
45 329.270111 0.000954 0.000000 0.001177 -80.928185 0.001177 329.270111
[L_Toe3_03]
43 439.137451 -0.001907 0.000954 -179.996780 76.748756 -179.993256 439.137451
44 439.137451 -0.001907 0.000954 -179.996780 76.744194 -179.993256 439.137451
45 439.137451 -0.001907 0.000954 -179.996780 76.739624 -179.993256 439.137451
[planeLockWeightLeft]
43 1000.000122 0.098077 0.076120 -0.011826 -0.004376 0.005620 1000.000122
44 1000.000122 0.098069 0.076121 -0.011826 -0.004376 0.005620 1000.000122
45 1000.000122 0.098060 0.076123 -0.011826 -0.004376 0.005620 1000.000122
[R_Leg01]
43 761.455627 -0.001907 -0.000358 120.789246 -18.788921 31.317627 761.455688
44 761.455627 -0.001907 -0.000358 120.467491 -18.613750 32.764786 761.455688
45 761.455627 -0.001907 -0.000358 120.673927 -18.324076 33.824024 761.455688
[R_Leg02]
43 1441.140625 0.000000 -0.000238 -1.153002 -0.185970 -123.579994 1441.140625
44 1441.140625 0.000000 -0.000238 -1.224533 -0.202219 -124.570961 1441.140625
45 1441.140625 0.000000 -0.000238 -1.295772 -0.219703 -125.561897 1441.140625
[R_Leg03]
43 1686.963989 0.000954 0.001431 0.075884 -0.043370 131.082047 1686.963989
44 1686.963989 0.000954 0.001431 0.076920 -0.043021 131.323380 1686.963989
45 1686.963989 0.000954 0.001431 0.077957 -0.042676 131.564697 1686.963989
[R_Foot]
43 3041.560059 -30.531288 -11.204481 -2.787759 -31.258333 49.862926 3041.734131
44 3041.560059 -30.531288 -11.204481 -3.639911 -31.851528 51.348381 3041.734131
45 3041.560059 -30.531288 -11.204481 -4.262003 -31.437469 52.842850 3041.734131
[planeAlignerRight]
43 -117.481621 -573.828186 -317.272064 -31.601133 -71.984596 -69.079704 666.139832
44 -121.604736 -573.887756 -315.569000 -34.472210 -71.622650 -66.349197 666.122131
45 -125.727814 -573.947449 -313.865967 -35.532494 -71.483780 -65.338791 666.134338
[R_Toe1_01]
43 -188.383347 -224.864899 21.052242 76.925323 1.565972 -172.685196 294.101532
44 -188.383347 -224.864899 21.052242 76.824768 0.439886 -172.718704 294.101532
45 -188.383347 -224.864899 21.052242 76.776283 -0.207206 -172.728226 294.101532
[R_Toe2_01]
43 200.637817 -220.002121 -148.787384 -89.785172 31.705034 -58.031616 332.857574
44 200.637817 -220.002121 -148.787384 -90.889000 32.379860 -58.681149 332.857574
45 200.637817 -220.002121 -148.787384 -91.537079 32.757355 -59.061207 332.857574
[R_Toe3_01]
43 188.606735 -220.092957 191.126343 -71.448502 -9.217263 -74.255104 347.192566
44 188.606735 -220.092957 191.126343 -72.462440 -8.774137 -73.977509 347.192566
45 188.606735 -220.092957 191.126343 -73.041840 -8.524757 -73.808159 347.192566
[planeLockWeightRight]
43 999.999268 0.000000 0.075878 -0.011823 -0.004379 -0.000027 999.999268
44 999.999268 0.000000 0.075868 -0.011823 -0.004379 -0.000027 999.999268
45 999.999268 0.000000 0.075859 -0.011823 -0.004379 -0.000027 999.999268
[R_Toe1_02]
43 413.762085 0.000477 -0.000119 0.001393 -24.809132 0.001393 413.762085
44 413.762085 0.000477 -0.000119 0.001393 -24.798441 0.001393 413.762085
45 413.762085 0.000477 -0.000119 0.001393 -24.787750 0.001393 413.762085
[R_Toe1_03]
43 464.317810 0.000000 0.001088 0.006522 69.265793 0.006522 464.317810
44 464.317810 0.000000 0.001088 0.006556 69.374962 0.006556 464.317810
45 464.317810 0.000000 0.001088 0.006590 69.484169 0.006590 464.317810
[R_Toe2_02]
43 342.234741 -0.000954 0.000238 0.001197 -67.164116 0.001197 342.234741
44 342.234741 -0.000954 0.000238 0.001197 -67.168175 0.001197 342.234741
45 342.234741 -0.000954 0.000238 0.001197 -67.172272 0.001197 342.234741
[R_Toe2_03]
43 420.210846 0.000715 -0.000268 0.008181 73.504021 0.008181 420.210846
44 420.210846 0.000715 -0.000268 0.008185 73.511726 0.008185 420.210846
45 420.210846 0.000715 -0.000268 0.008188 73.519508 0.008188 420.210846
[R_Toe3_02]
43 329.270355 -0.000477 -0.000954 0.001184 -74.789627 0.001184 329.270355
44 329.270355 -0.000477 -0.000954 0.001184 -74.750893 0.001184 329.270355
45 329.270355 -0.000477 -0.000954 0.001184 -74.712219 0.001184 329.270355
[R_Toe3_03]
43 439.137939 0.000238 0.001431 -0.012297 83.751854 -0.008795 439.137939
44 439.137939 0.000238 0.001431 -0.011956 83.542656 -0.008453 439.137939
45 439.137939 0.000238 0.001431 -0.011636 83.333351 -0.008133 439.137939
[Rear_Leg02]
43 1162.777710 -0.029802 0.005960 1.876413 -2.356794 -126.419525 1162.777710
44 1162.777710 -0.029802 0.005960 1.812532 -2.402914 -126.493782 1162.777710
45 1162.777710 -0.029802 0.005960 1.748707 -2.449116 -126.567970 1162.777710
[Rear_Leg03]
43 607.192505 -0.013351 -0.073195 0.010255 -0.005568 73.352562 607.192505
44 607.192505 -0.013351 -0.073195 0.010267 -0.005544 73.087959 607.192505
45 607.192505 -0.013351 -0.073195 0.010300 -0.005484 72.417191 607.192505
[Rear_Leg04]
43 995.874512 -0.020504 -0.011921 -0.045061 -0.018381 79.034653 995.874573
44 995.874512 -0.020504 -0.011921 -0.043321 -0.016914 77.874245 995.874573
45 995.874512 -0.020504 -0.011921 -0.041611 -0.015412 76.713844 995.874573
[Rear_Foot]
43 3096.176270 -0.067472 -0.041425 -160.465622 81.477646 16.771166 3096.176270
44 3096.176270 -0.067472 -0.041425 -161.441162 81.122101 16.838827 3096.176270
45 3096.176270 -0.067472 -0.041425 -161.719849 81.074364 17.887222 3096.176270
[planeAlignerCenter]
43 0.918327 -16.082254 -776.948792 12.240772 -0.001473 179.998184 777.115723
44 0.918478 -16.082203 -776.950439 12.240769 -0.001473 179.998184 777.117371
45 0.918630 -16.082153 -776.951965 12.240773 -0.001473 179.998184 777.118896
[Rear_Toe1_01]
43 0.653352 83.966492 -371.173737 0.292308 41.914127 90.408974 380.553192
44 0.653352 83.966492 -371.173737 0.292005 41.914127 90.409279 380.553192
45 0.653352 83.966492 -371.173737 0.291705 41.914116 90.409561 380.553192
[Rear_Toe2_01]
43 178.200760 -294.826019 -362.060547 -7.196267 34.406261 -66.271294 499.765686
44 178.200760 -294.826019 -362.060547 -7.196265 34.406250 -66.271294 499.765686
45 178.200760 -294.826019 -362.060547 -7.196267 34.406261 -66.271294 499.765686
[Rear_Toe3_01]
43 -153.359680 -308.780914 -362.060852 3.289418 33.518005 -112.540970 499.952881
44 -153.359680 -308.780914 -362.060852 3.289418 33.518005 -112.540970 499.952881
45 -153.359680 -308.780914 -362.060852 3.289418 33.518005 -112.540970 499.952881
[planeLockWeightCenter]
43 1000.000122 0.000305 0.076419 -0.011814 -0.004373 -0.000015 1000.000122
44 1000.000244 0.000305 0.076417 -0.011814 -0.004373 -0.000015 1000.000244
45 1000.000244 0.000305 0.076415 -0.011814 -0.004373 -0.000015 1000.000244
[Rear_Toe1_02]
43 379.707825 0.194073 0.000477 -0.000236 -31.601660 0.006931 379.707855
44 379.707825 0.194073 0.000477 -0.000237 -31.607021 0.006931 379.707855
45 379.707825 0.194073 0.000477 -0.000237 -31.612391 0.006932 379.707855
[Rear_Toe1_03]
43 500.129700 0.165701 0.000119 -0.000105 51.887070 0.007294 500.129761
44 500.129700 0.165701 0.000119 -0.000105 51.888168 0.007294 500.129761
45 500.129700 0.165701 0.000119 -0.000105 51.889290 0.007294 500.129761
[Rear_Toe2_02]
43 340.494507 0.000238 -0.000954 0.001192 -69.854523 0.001192 340.494507
44 340.494507 0.000238 -0.000954 0.001192 -69.854523 0.001192 340.494507
45 340.494507 0.000238 -0.000954 0.001192 -69.854523 0.001192 340.494507
[Rear_Toe2_03]
43 433.103577 0.000000 0.000238 0.006675 69.746620 0.006675 433.103546
44 433.103577 0.000000 0.000238 0.006685 69.778473 0.006685 433.103546
45 433.103577 0.000000 0.000238 0.006696 69.810326 0.006696 433.103546
[Rear_Toe3_02]
43 340.494141 -0.000358 -0.000477 0.008288 -67.274704 -0.009460 340.494171
44 340.494141 -0.000358 -0.000477 0.008288 -67.274704 -0.009460 340.494171
45 340.494141 -0.000358 -0.000477 0.008288 -67.274704 -0.009460 340.494171
[Rear_Toe3_03]
43 433.103577 0.001431 -0.000238 -0.000987 66.082870 -0.004561 433.103546
44 433.103577 0.001431 -0.000238 -0.000985 66.065178 -0.004559 433.103546
45 433.103577 0.001431 -0.000238 -0.000982 66.047478 -0.004557 433.103546
[Back_Bone]
43 1312.175781 -701.934692 0.000954 0.000023 -0.000007 -85.606667 1488.125488
44 1312.175781 -701.934692 0.000954 0.000023 -0.000007 -85.606667 1488.125488
45 1312.175781 -701.934692 0.000954 0.000023 -0.000007 -85.606667 1488.125488
[Head]
43 1406.159424 809.709290 0.001431 0.000625 -1.475623 7.768025 1622.625488
44 1406.159424 809.709290 0.001431 0.000625 -1.475624 7.768028 1622.625488
45 1406.159424 809.709290 0.001431 0.000625 -1.475623 7.768026 1622.625488
[Motor_Bone]
43 1158.364380 -417.834747 0.000477 -0.097107 2.134912 -105.913818 1231.419434
44 1158.364380 -417.834747 0.000477 -0.097109 3.449063 -105.913483 1231.419434
45 1158.364380 -417.834747 0.000477 -0.097103 4.763041 -105.913147 1231.419434
[Ping_Mechanism]
43 1242.352173 -445.377808 -2.654918 0.000103 -0.000053 82.120995 1319.775513
44 1239.417480 -444.165649 -3.453687 0.000103 -0.000053 82.120995 1316.605713
45 1236.482666 -442.953491 -4.252457 0.000103 -0.000053 82.120995 1313.436401
[BN_LookIK]
43 193.241119 1380.371704 -0.002861 0.000000 89.965736 -31.038179 1393.832153
44 193.241119 1380.371704 -0.002861 0.000000 89.965736 -31.038179 1393.832153
45 193.241119 1380.371704 -0.002861 0.000000 89.965736 -31.038179 1393.832153
[bottomMouth]
43 -435.092926 615.759399 -0.000954 -0.000022 0.000016 73.527184 753.966492
44 -435.092926 615.759399 -0.000954 -0.000022 0.000016 73.527184 753.966492
45 -435.092926 615.759399 -0.000954 -0.000022 0.000016 73.527184 753.966492
[L_Mouth01]
43 554.440979 7.658243 838.222046 150.204178 23.759130 109.605339 1005.027161
44 554.440979 7.658243 838.222046 150.204178 23.759130 109.605339 1005.027161
45 554.440979 7.658243 838.222046 150.204178 23.759130 109.605339 1005.027161
[L_mouthFront]
43 551.629089 934.514771 339.150421 0.000081 2.804060 79.119301 1136.941284
44 551.629089 934.514771 339.150421 0.000081 2.804060 79.119301 1136.941284
45 551.629089 934.514771 339.150421 0.000081 2.804060 79.119301 1136.941284
[mouthGun]
43 55.332661 1627.420898 0.000000 0.000023 0.000009 -11.038128 1628.361328
44 55.332661 1627.420898 0.000000 0.000023 0.000009 -11.038128 1628.361328
45 55.332661 1627.420898 0.000000 0.000023 0.000009 -11.038128 1628.361328
[R_Mouth01]
43 554.442383 7.659197 -838.223938 29.795891 -23.759109 109.605331 1005.029541
44 554.442383 7.659197 -838.223938 29.795891 -23.759109 109.605331 1005.029541
45 554.442383 7.659197 -838.223938 29.795891 -23.759109 109.605331 1005.029541
[R_mouthFront]
43 551.629089 934.514282 -339.151367 0.000029 -2.803930 79.119133 1136.941162
44 551.629089 934.514282 -339.151367 0.000029 -2.803930 79.119133 1136.941162
45 551.629089 934.514282 -339.151367 0.000029 -2.803930 79.119133 1136.941162
[TopMouth]
43 461.269867 -56.106091 -0.008583 -0.000059 -0.000268 92.025169 464.669525
44 461.269867 -56.106091 -0.008583 -0.000059 -0.000268 92.025169 464.669525
45 461.269867 -56.106091 -0.008583 -0.000059 -0.000268 92.025169 464.669525
[weapon_bone]
43 -987.239868 1448.372803 0.001431 0.000000 89.965736 -31.038221 1752.833740
44 -987.239868 1448.372803 0.001431 0.000000 89.965736 -31.038221 1752.833740
45 -987.239868 1448.372803 0.001431 0.000000 89.965736 -31.038221 1752.833740
